IKResults
version=1
nRows=5
nColumns=40
inDegrees=yes

Units are S.I. units (second, meters, Newtons, ...)
Angles are in degrees.

endheader
time	pelvis_tilt	pelvis_list	pelvis_rotation	pelvis_tx	pelvis_ty	pelvis_tz	hip_flexion_r	hip_adduction_r	hip_rotation_r	knee_angle_r	knee_angle_r_beta	ankle_angle_r	subtalar_angle_r	mtp_angle_r	hip_flexion_l	hip_adduction_l	hip_rotation_l	knee_angle_l	knee_angle_l_beta	ankle_angle_l	subtalar_angle_l	mtp_angle_l	lumbar_extension	lumbar_bending	lumbar_rotation	arm_flex_r	arm_add_r	arm_rot_r	elbow_flex_r	pro_sup_r	wrist_flex_r	wrist_dev_r	arm_flex_l	arm_add_l	arm_rot_l	elbow_flex_l	pro_sup_l	wrist_flex_l	wrist_dev_l
      1.76000000	     18.30002902	     -4.71647132	      6.53264496	     -0.18067351	      0.95208592	     -1.44595279	     -7.72610875	      4.86580814	    -20.96177893	    -14.61429389	     -0.25506755	      2.21872799	      3.06182793	     -6.95460957	    -22.32506695	      7.87458550	      3.05398289	    -43.88502568	     -0.76593819	     -4.00495546	     17.53065104	     -1.02520331	    -22.84103387	      7.35229116	     -6.01849877	     -4.17463143	    -10.87785807	      0.78838612	     24.72564562	     89.95437384	      0.00000000	      0.00000000	     11.26206950	      6.91625974	     -0.46913818	     43.55400480	     89.95437384	      0.00000000	      0.00000000
      1.77000000	     18.54528111	     -4.64557399	      6.51137695	     -0.17434113	      0.95279509	     -1.44439209	     -8.50938200	      4.97200785	    -20.87348795	    -14.47720523	     -0.25267490	      2.53802900	      3.29241170	     -7.00406954	    -21.54365194	      7.92499869	      3.10375599	    -45.90002433	     -0.80110655	     -4.72013357	     17.86654969	     -0.68150930	    -23.15226394	      7.26907382	     -5.81048433	     -4.04680950	    -10.95281095	      0.89484129	     24.87313016	     89.95437384	      0.00000000	      0.00000000	     10.98530369	      6.90650568	     -0.15118664	     43.47575549	     89.95437384	      0.00000000	      0.00000000
      1.78000000	     18.76204774	     -4.57814390	      6.46682268	     -0.16801391	      0.95351626	     -1.44282865	     -9.26784523	      5.08455166	    -20.73855792	    -14.32387662	     -0.24999881	      2.83129779	      3.51009858	     -7.05128249	    -20.77175939	      7.97560278	      3.18127408	    -47.75806118	     -0.83353541	     -5.09302762	     18.20345257	     -0.34282473	    -23.41035431	      7.16803846	     -5.61526173	     -3.92211886	    -11.02730728	      0.99802938	     25.06302780	     89.95437384	      0.00000000	      0.00000000	     10.65631356	      6.88124111	      0.17512706	     43.29984893	     89.95437384	      0.00000000	      0.00000000
      1.79000000	     18.98492655	     -4.47245846	      6.25268338	     -0.16167594	      0.95430228	     -1.44123183	     -9.97974174	      5.07786387	    -20.74166852	    -14.28368179	     -0.24929728	      3.03817936	      3.54037139	     -7.04263538	    -20.17286243	      7.81628535	      3.20732625	    -49.22071957	     -0.85906362	     -5.03447892	     18.37450548	     -0.17320949	    -23.70258049	      6.98420530	     -5.14990694	     -3.78748289	    -11.10129779	      1.07746158	     25.08745831	     89.95437384	      0.00000000	      0.00000000	     10.35892839	      6.82146872	      0.42098086	     43.08707576	     89.95437384	      0.00000000	      0.00000000
      1.80000000	     19.18324029	     -4.33259471	      6.18084241	     -0.15560222	      0.95505017	     -1.43984541	    -10.70667859	      5.10296120	    -20.62876400	    -14.13191193	     -0.24664839	      3.27508411	      3.65741104	     -7.05715876	    -19.45926723	      7.70707512	      3.25132743	    -50.59872722	     -0.88311439	     -4.50666359	     18.62192524	      0.00603114	    -23.95592963	      6.80101560	     -4.96230288	     -3.59734826	    -11.16221659	      1.11667592	     25.22078288	     89.95437384	      0.00000000	      0.00000000	     10.07176222	      6.82257589	      0.72421665	     42.69758485	     89.95437384	      0.00000000	      0.00000000
